<?xml version="1.0" encoding="UTF-8"?><svg id="b" xmlns="http://www.w3.org/2000/svg" viewBox="0 0 270.485 28.407"><g id="c"><path d="M1.822,3.782h3.43v16.237h9.056v3.001H1.822V3.782Z" style="fill:#fff;"/><path d="M31.247,23.021h-3.43V3.782h3.43v19.238Z" style="fill:#fff;"/><path d="M51.774,23.021l-7.154-19.238h3.698l5.305,14.951,5.332-14.951h3.537l-7.101,19.238h-3.617Z" style="fill:#fff;"/><path d="M88.891,3.782v3.001h-9.646v4.823h8.119v3.001h-8.119v5.413h9.646v3.001h-13.022V3.782h13.022Z" style="fill:#fff;"/><path d="M120.542,17.099c1.34,2.09,3.35,3.295,5.546,3.295,2.17,0,3.805-.991,3.805-2.84,0-1.956-2.01-2.224-4.876-2.921-2.894-.697-6.002-1.554-6.002-5.305,0-3.564,3.054-5.841,6.939-5.841,3.296,0,5.868,1.554,7.154,3.563l-2.519,2.17c-1.072-1.661-2.492-2.813-4.743-2.813-2.063,0-3.483,1.045-3.483,2.572,0,1.688,1.474,2.036,4.073,2.625,3.108.697,6.833,1.42,6.833,5.6,0,3.778-3.323,6.109-7.288,6.109-3.296,0-6.564-1.581-8.065-4.046l2.625-2.17Z" style="fill:#fff;"/><path d="M154.764,6.783v16.237h-3.43V6.783h-6.189v-3.001h15.809v3.001h-6.189Z" style="fill:#fff;"/><path d="M174.168,15.384V3.782h3.43v11.495c0,3.51,1.742,4.984,4.314,4.984,2.599,0,4.341-1.474,4.341-4.984V3.782h3.43v11.602c0,5.305-3.162,7.904-7.771,7.904-4.582,0-7.744-2.599-7.744-7.904Z" style="fill:#fff;"/><path d="M204.317,3.782h6.431c5.976,0,9.673,3.751,9.673,9.619s-3.697,9.619-9.673,9.619h-6.431V3.782ZM210.748,20.073c3.966,0,6.297-2.626,6.297-6.672,0-4.073-2.331-6.672-6.323-6.672h-3.055v13.344h3.081Z" style="fill:#fff;"/><path d="M237.815,23.021h-3.43V3.782h3.43v19.238Z" style="fill:#fff;"/><path d="M260.701,3.487c5.198,0,8.95,4.073,8.95,9.914s-3.751,9.914-8.95,9.914-8.949-4.073-8.949-9.914,3.751-9.914,8.949-9.914ZM260.701,6.515c-3.242,0-5.52,2.706-5.52,6.886s2.277,6.886,5.52,6.886,5.52-2.707,5.52-6.886-2.278-6.886-5.52-6.886Z" style="fill:#fff;"/></g></svg>