<?xml version="1.0" encoding="UTF-8"?><svg id="b" xmlns="http://www.w3.org/2000/svg" viewBox="0 0 444.714 113.886"><g id="c"><rect x="1" y="12.281" width="443.714" height="71.301" style="fill:none;"/><path d="M6.44,69.72V12.278h38.321v8.96h-28.241v15.6h23.68v8.96h-23.68v23.92H6.44Z" style="fill:#fff; stroke:#fff; stroke-miterlimit:10; stroke-width:2px;"/><path d="M62.601,69.72h-9.6V12.278h9.6v57.441Z" style="fill:#fff; stroke:#fff; stroke-miterlimit:10; stroke-width:2px;"/><path d="M92.68,70.6c-11.84,0-20.241-8.8-20.241-21.84s8.4-21.84,20.241-21.84,20.24,8.8,20.24,21.84-8.4,21.84-20.24,21.84ZM92.68,62.52c6.48,0,10.56-5.2,10.56-13.76s-4.08-13.76-10.56-13.76-10.561,5.2-10.561,13.76,4.08,13.76,10.561,13.76Z" style="fill:#fff; stroke:#fff; stroke-miterlimit:10; stroke-width:2px;"/><path d="M149.881,27.719l7.52,27.841,7.44-27.841h9.521l-12.641,42.001h-8.32l-7.68-27.521-7.68,27.521h-8.32l-12.64-42.001h9.84l7.601,27.841,7.44-27.841h7.92Z" style="fill:#fff; stroke:#fff; stroke-miterlimit:10; stroke-width:2px;"/><path d="M191.559,69.72h-9.6V27.719h9.6v4.48c2.32-2.8,5.92-5.28,11.521-5.28,5.04,0,8.8,2.24,11.12,5.84,2.56-2.72,6.56-5.84,13.041-5.84,8.64,0,14.24,6.08,14.24,15.12v27.681h-9.6v-24.88c0-5.2-1.92-8.96-7.041-8.96-4.08,0-8.32,3.2-8.32,9.2v24.641h-9.601v-24.88c0-5.2-1.92-8.96-7.04-8.96-4.08,0-8.32,3.2-8.32,9.2v24.641Z" style="fill:#fff; stroke:#fff; stroke-miterlimit:10; stroke-width:2px;"/><path d="M250.598,58.04c0-8,6-11.521,14.081-13.2l11.6-2.4v-.72c0-4-2.08-6.48-7.2-6.48-4.56,0-6.96,2.08-8.08,6.16l-9.041-2.08c2.08-6.96,8.24-12.4,17.521-12.4,10.081,0,16.161,4.8,16.161,14.48v18.081c0,2.4,1.04,3.12,3.68,2.8v7.44c-6.96.8-10.64-.56-12.08-4-2.64,2.96-7.04,4.72-12.48,4.72-8,0-14.16-4.88-14.16-12.4ZM276.278,49.799l-9.04,1.92c-4.08.88-7.12,2.16-7.12,5.92,0,3.28,2.4,5.12,6.08,5.12,5.12,0,10.08-2.72,10.08-7.84v-5.12Z" style="fill:#fff; stroke:#fff; stroke-miterlimit:10; stroke-width:2px;"/><path d="M301.317,55.959c2.48,4.08,7.28,6.8,12.16,6.8,4.08,0,7.84-1.44,7.84-5.2,0-3.6-3.52-4-10.161-5.36-6.64-1.36-14.24-3.04-14.24-12,0-7.68,6.72-13.28,16.4-13.28,7.36,0,13.92,3.28,16.96,7.92l-6.48,5.84c-2.4-3.76-6.4-5.92-11.041-5.92-3.92,0-6.48,1.76-6.48,4.56,0,3.04,3.04,3.6,8.32,4.72,7.12,1.52,16.08,3.04,16.08,12.64,0,8.48-7.76,13.92-17.28,13.92-7.76,0-15.521-3.12-19.28-8.88l7.2-5.76Z" style="fill:#fff; stroke:#fff; stroke-miterlimit:10; stroke-width:2px;"/><path d="M341.315,35.879h-5.84v-8.16h5.84v-12.32h9.44v12.32h8.8v8.16h-8.8v21.761c0,3.76,2.16,4.16,5.6,4.16,1.6,0,2.48-.08,3.92-.24v8.08c-1.76.32-4.16.56-6.64.56-8,0-12.32-2.48-12.32-11.04v-23.281Z" style="fill:#fff; stroke:#fff; stroke-miterlimit:10; stroke-width:2px;"/><path d="M366.836,48.759c0-12.32,8.32-21.84,20-21.84,12.16,0,18.641,9.2,18.641,20.72v3.2h-29.441c.72,7.2,5.041,11.6,11.2,11.6,4.72,0,8.48-2.4,9.76-6.72l8.24,3.12c-2.96,7.36-9.6,11.76-18,11.76-12,0-20.4-8.88-20.4-21.84ZM376.517,43.639h19.281c-.08-4.64-2.96-8.64-9.041-8.64-4.96,0-8.8,2.96-10.24,8.64Z" style="fill:#fff; stroke:#fff; stroke-miterlimit:10; stroke-width:2px;"/><path d="M438.917,37.239c-1.2-.16-2.16-.24-3.521-.24-6.08,0-10.72,3.92-10.72,10.64v22.081h-9.6V27.719h9.6v6.24c1.84-3.92,6.16-6.48,11.521-6.48,1.12,0,2,.08,2.72.16v9.6Z" style="fill:#fff; stroke:#fff; stroke-miterlimit:10; stroke-width:2px;"/><path d="M89.437,89.261h3.43v16.237h9.056v3.001h-12.486v-19.238Z" style="fill:#fff;"/><path d="M118.862,108.5h-3.43v-19.238h3.43v19.238Z" style="fill:#fff;"/><path d="M139.389,108.5l-7.154-19.238h3.698l5.305,14.951,5.332-14.951h3.537l-7.101,19.238h-3.617Z" style="fill:#fff;"/><path d="M176.505,89.261v3.001h-9.646v4.823h8.119v3.001h-8.119v5.413h9.646v3.001h-13.022v-19.238h13.022Z" style="fill:#fff;"/><path d="M208.157,102.578c1.34,2.09,3.35,3.295,5.546,3.295,2.17,0,3.805-.991,3.805-2.84,0-1.956-2.01-2.224-4.876-2.921-2.894-.697-6.002-1.554-6.002-5.305,0-3.564,3.054-5.841,6.939-5.841,3.296,0,5.868,1.554,7.154,3.563l-2.519,2.17c-1.072-1.661-2.492-2.813-4.743-2.813-2.063,0-3.483,1.045-3.483,2.572,0,1.688,1.474,2.036,4.073,2.625,3.108.697,6.833,1.42,6.833,5.6,0,3.778-3.323,6.109-7.288,6.109-3.296,0-6.564-1.581-8.065-4.046l2.625-2.17Z" style="fill:#fff;"/><path d="M242.379,92.262v16.237h-3.43v-16.237h-6.189v-3.001h15.809v3.001h-6.189Z" style="fill:#fff;"/><path d="M261.783,100.863v-11.602h3.43v11.495c0,3.51,1.742,4.984,4.314,4.984,2.599,0,4.341-1.474,4.341-4.984v-11.495h3.43v11.602c0,5.305-3.162,7.904-7.771,7.904-4.582,0-7.744-2.599-7.744-7.904Z" style="fill:#fff;"/><path d="M291.932,89.261h6.431c5.976,0,9.673,3.751,9.673,9.619s-3.697,9.619-9.673,9.619h-6.431v-19.238ZM298.363,105.552c3.966,0,6.297-2.626,6.297-6.672,0-4.073-2.331-6.672-6.323-6.672h-3.055v13.344h3.081Z" style="fill:#fff;"/><path d="M325.43,108.5h-3.43v-19.238h3.43v19.238Z" style="fill:#fff;"/><path d="M348.316,88.966c5.198,0,8.95,4.073,8.95,9.914s-3.751,9.914-8.95,9.914-8.949-4.073-8.949-9.914,3.751-9.914,8.949-9.914ZM348.316,91.994c-3.242,0-5.52,2.706-5.52,6.886s2.277,6.886,5.52,6.886,5.52-2.707,5.52-6.886-2.278-6.886-5.52-6.886Z" style="fill:#fff;"/></g></svg>