<?xml version="1.0" encoding="UTF-8"?><svg id="b" xmlns="http://www.w3.org/2000/svg" viewBox="0 0 1105.983 1029.999"><g id="c"><rect y="0" width="1105.983" height="884.239" style="fill:none;"/><path d="M31.25,530.005c0,128.906,105.484,234.375,234.375,234.375h468.75c128.922,0,234.375-105.469,234.375-234.375s-105.453-234.375-234.375-234.375h-468.75c-128.891,0-234.375,105.469-234.375,234.375Z" style="fill:#94989b;"/><path d="M60.547,530.005c0,113.094,92.016,205.078,205.078,205.078h468.75c113.094,0,205.078-91.984,205.078-205.078s-91.984-205.078-205.078-205.078h-468.75c-113.062,0-205.078,91.984-205.078,205.078Z" style="fill:#3e4347;"/><circle cx="500" cy="530.005" r="117.187" style="fill:#ffe62e;"/><circle cx="207.031" cy="530.005" r="117.187" style="fill:#ed4c5c;"/><circle cx="792.969" cy="530.005" r="117.187" style="fill:#83bf4f;"/></g></svg>