<?xml version="1.0" encoding="UTF-8"?><svg id="b" xmlns="http://www.w3.org/2000/svg" xmlns:xlink="http://www.w3.org/1999/xlink" viewBox="0 0 662.393 662.393"><defs><clipPath id="e"><rect x="108.84" y="270.303" width="444.714" height="121.787" style="fill:none;"/></clipPath><clipPath id="f"><rect x="108.84" y="270.304" width="444.714" height="121.787" style="fill:none;"/></clipPath></defs><g id="c"><rect width="662.393" height="662.393" style="fill:#1d1b1c;"/><g id="d"><g style="clip-path:url(#e);"><g style="clip-path:url(#f);"><path d="M219.946,390.872h-98.634c-6.888,0-12.472-5.584-12.472-12.472v-95.624c0-6.888,5.584-12.472,12.472-12.472h98.634c6.888,0,12.472,5.584,12.472,12.472v95.624c0,6.888-5.584,12.472-12.472,12.472" style="fill:#f4383c;"/><path d="M380.514,390.943h-98.634c-6.888,0-12.472-5.584-12.472-12.472v-95.624c0-6.888,5.584-12.472,12.472-12.472h98.634c6.888,0,12.472,5.584,12.472,12.472v95.624c0,6.888-5.584,12.472-12.472,12.472" style="fill:#f5d440;"/><path d="M541.081,392.09h-98.634c-6.888,0-12.472-5.584-12.472-12.472v-95.624c0-6.888,5.584-12.472,12.472-12.472h98.634c6.888,0,12.472,5.584,12.472,12.472v95.624c0,6.888-5.584,12.472-12.472,12.472" style="fill:#6be553;"/></g></g></g></g></svg>