<?xml version="1.0" encoding="UTF-8"?><svg id="b" xmlns="http://www.w3.org/2000/svg" xmlns:xlink="http://www.w3.org/1999/xlink" viewBox="0 0 662.393 662.393"><defs><clipPath id="e"><rect y="0" width="662.393" height="662.393" style="fill:none;"/></clipPath><clipPath id="f"><rect x="108.84" y="229.589" width="444.713" height="203.215" style="fill:none;"/></clipPath><clipPath id="g"><rect x="108.84" y="229.589" width="444.713" height="203.215" style="fill:none;"/></clipPath></defs><g id="c"><g id="d"><g style="clip-path:url(#e);"><rect y="0" width="662.393" height="662.393" style="fill:#1d1b1c;"/><path d="M115.279,388.637v-57.441h38.321v8.96h-28.241v15.601h23.68v8.96h-23.68v23.921h-10.081Z" style="fill:#fff;"/><path d="M171.439,388.637h-9.6v-57.441h9.6v57.441Z" style="fill:#fff;"/><path d="M201.519,389.517c-11.84,0-20.241-8.801-20.241-21.841s8.4-21.84,20.241-21.84,20.24,8.8,20.24,21.84-8.4,21.841-20.24,21.841ZM201.519,381.437c6.48,0,10.56-5.2,10.56-13.761s-4.08-13.76-10.56-13.76-10.561,5.2-10.561,13.76,4.08,13.761,10.561,13.761Z" style="fill:#fff;"/><path d="M258.718,346.636l7.52,27.841,7.44-27.841h9.521l-12.64,42.001h-8.32l-7.68-27.521-7.68,27.521h-8.32l-12.64-42.001h9.84l7.601,27.841,7.44-27.841h7.92Z" style="fill:#fff;"/><path d="M300.397,388.637h-9.6v-42.001h9.6v4.479c2.32-2.8,5.92-5.279,11.521-5.279,5.04,0,8.8,2.239,11.12,5.84,2.56-2.72,6.56-5.84,13.041-5.84,8.64,0,14.24,6.08,14.24,15.12v27.681h-9.601v-24.881c0-5.2-1.92-8.96-7.04-8.96-4.08,0-8.32,3.2-8.32,9.2v24.641h-9.601v-24.881c0-5.2-1.92-8.96-7.04-8.96-4.08,0-8.32,3.2-8.32,9.2v24.641Z" style="fill:#fff;"/><path d="M359.356,376.957c0-8,6-11.521,14.08-13.2l11.601-2.4v-.72c0-4-2.08-6.48-7.2-6.48-4.561,0-6.96,2.08-8.08,6.16l-9.041-2.08c2.08-6.96,8.24-12.399,17.521-12.399,10.081,0,16.161,4.8,16.161,14.479v18.081c0,2.399,1.04,3.12,3.68,2.8v7.44c-6.96.8-10.641-.561-12.08-4-2.641,2.96-7.04,4.72-12.48,4.72-8,0-14.16-4.88-14.16-12.4ZM385.037,368.716l-9.04,1.92c-4.08.88-7.121,2.16-7.121,5.921,0,3.279,2.4,5.12,6.081,5.12,5.12,0,10.08-2.721,10.08-7.841v-5.12Z" style="fill:#fff;"/><path d="M410.076,374.877c2.479,4.08,7.279,6.801,12.16,6.801,4.08,0,7.84-1.44,7.84-5.2,0-3.601-3.521-4-10.16-5.36-6.641-1.36-14.24-3.04-14.24-12,0-7.681,6.72-13.28,16.4-13.28,7.36,0,13.92,3.279,16.96,7.92l-6.479,5.84c-2.4-3.76-6.4-5.92-11.041-5.92-3.92,0-6.479,1.76-6.479,4.56,0,3.04,3.04,3.601,8.32,4.721,7.12,1.52,16.08,3.04,16.08,12.64,0,8.48-7.761,13.921-17.28,13.921-7.761,0-15.521-3.12-19.28-8.88l7.2-5.761Z" style="fill:#fff;"/><path d="M450.074,354.797h-5.84v-8.16h5.84v-12.32h9.44v12.32h8.801v8.16h-8.801v21.761c0,3.76,2.16,4.159,5.601,4.159,1.6,0,2.479-.079,3.92-.239v8.08c-1.76.32-4.16.56-6.641.56-8,0-12.32-2.479-12.32-11.04v-23.28Z" style="fill:#fff;"/><path d="M475.594,367.676c0-12.32,8.32-21.84,20-21.84,12.16,0,18.641,9.2,18.641,20.72v3.2h-29.44c.72,7.2,5.04,11.601,11.2,11.601,4.72,0,8.48-2.4,9.76-6.721l8.24,3.12c-2.96,7.36-9.6,11.761-18,11.761-12,0-20.4-8.88-20.4-21.841ZM485.274,362.556h19.281c-.08-4.64-2.96-8.64-9.041-8.64-4.96,0-8.8,2.96-10.24,8.64Z" style="fill:#fff;"/><path d="M547.674,356.156c-1.2-.159-2.16-.239-3.521-.239-6.08,0-10.72,3.92-10.72,10.64v22.081h-9.601v-42.001h9.601v6.24c1.84-3.92,6.16-6.48,11.52-6.48,1.12,0,2.001.08,2.721.16v9.6Z" style="fill:#fff;"/><polygon points="125.359 388.637 125.359 364.717 149.039 364.717 149.039 355.757 125.359 355.757 125.359 340.157 153.599 340.157 153.599 331.197 115.279 331.197 115.279 388.637 125.359 388.637" style="fill:none; stroke:#fff; stroke-miterlimit:10; stroke-width:2px;"/><rect x="161.84" y="331.197" width="9.6" height="57.44" style="fill:none; stroke:#fff; stroke-miterlimit:10; stroke-width:2px;"/><g style="clip-path:url(#f);"><path d="M190.959,367.677c0-8.56,4.08-13.76,10.56-13.76s10.56,5.2,10.56,13.76-4.08,13.76-10.56,13.76-10.56-5.2-10.56-13.76ZM221.759,367.677c0-13.04-8.4-21.84-20.24-21.84s-20.24,8.8-20.24,21.84,8.4,21.84,20.24,21.84,20.24-8.8,20.24-21.84Z" style="fill:none; stroke:#fff; stroke-miterlimit:10; stroke-width:2px;"/></g><polygon points="250.799 346.637 243.359 374.477 235.759 346.637 225.919 346.637 238.559 388.637 246.879 388.637 254.559 361.117 262.239 388.637 270.559 388.637 283.199 346.637 273.679 346.637 266.239 374.477 258.719 346.637 250.799 346.637" style="fill:none; stroke:#fff; stroke-miterlimit:10; stroke-width:2px;"/><g style="clip-path:url(#g);"><path d="M300.398,363.997c0-6,4.24-9.2,8.32-9.2,5.12,0,7.04,3.76,7.04,8.96v24.88h9.6v-24.64c0-6,4.24-9.2,8.32-9.2,5.12,0,7.04,3.76,7.04,8.96v24.88h9.6v-27.68c0-9.04-5.6-15.12-14.24-15.12-6.48,0-10.48,3.12-13.04,5.84-2.32-3.6-6.08-5.84-11.12-5.84-5.6,0-9.2,2.48-11.52,5.28v-4.48h-9.6v42h9.6v-24.64Z" style="fill:none; stroke:#fff; stroke-miterlimit:10; stroke-width:2px;"/><path d="M385.117,373.837c0,5.12-4.96,7.84-10.08,7.84-3.68,0-6.08-1.84-6.08-5.12,0-3.76,3.04-5.04,7.12-5.92l9.04-1.92v5.12ZM373.597,389.357c5.44,0,9.84-1.76,12.48-4.72,1.44,3.44,5.12,4.8,12.08,4v-7.44c-2.64.32-3.68-.4-3.68-2.8v-18.08c0-9.68-6.08-14.48-16.16-14.48-9.28,0-15.44,5.44-17.52,12.4l9.04,2.08c1.12-4.08,3.52-6.16,8.08-6.16,5.12,0,7.2,2.48,7.2,6.48v.72l-11.6,2.4c-8.08,1.68-14.08,5.2-14.08,13.2,0,7.52,6.16,12.4,14.16,12.4Z" style="fill:none; stroke:#fff; stroke-miterlimit:10; stroke-width:2px;"/><path d="M402.957,380.637c3.76,5.76,11.52,8.88,19.28,8.88,9.52,0,17.28-5.44,17.28-13.92,0-9.6-8.96-11.12-16.08-12.64-5.28-1.12-8.32-1.68-8.32-4.72,0-2.8,2.56-4.56,6.48-4.56,4.64,0,8.64,2.16,11.04,5.92l6.48-5.84c-3.04-4.64-9.6-7.92-16.96-7.92-9.68,0-16.4,5.6-16.4,13.28,0,8.96,7.6,10.64,14.24,12,6.64,1.36,10.16,1.76,10.16,5.36,0,3.76-3.76,5.2-7.84,5.2-4.88,0-9.68-2.72-12.16-6.8l-7.2,5.76Z" style="fill:none; stroke:#fff; stroke-miterlimit:10; stroke-width:2px;"/><path d="M450.155,378.077c0,8.56,4.32,11.04,12.32,11.04,2.48,0,4.88-.24,6.64-.56v-8.08c-1.44.16-2.32.24-3.92.24-3.44,0-5.6-.4-5.6-4.16v-21.76h8.8v-8.16h-8.8v-12.32h-9.44v12.32h-5.84v8.16h5.84v23.28Z" style="fill:none; stroke:#fff; stroke-miterlimit:10; stroke-width:2px;"/><path d="M495.596,353.917c6.08,0,8.96,4,9.04,8.64h-19.28c1.44-5.68,5.28-8.64,10.24-8.64ZM496.076,389.517c8.4,0,15.04-4.4,18-11.76l-8.24-3.12c-1.28,4.32-5.04,6.72-9.76,6.72-6.16,0-10.48-4.4-11.2-11.6h29.44v-3.2c0-11.52-6.48-20.72-18.64-20.72-11.68,0-20,9.52-20,21.84,0,12.96,8.4,21.84,20.4,21.84Z" style="fill:none; stroke:#fff; stroke-miterlimit:10; stroke-width:2px;"/><path d="M547.755,346.557c-.72-.08-1.6-.16-2.72-.16-5.36,0-9.68,2.56-11.52,6.48v-6.24h-9.6v42h9.6v-22.08c0-6.72,4.64-10.64,10.72-10.64,1.36,0,2.32.08,3.52.24v-9.6Z" style="fill:none; stroke:#fff; stroke-miterlimit:10; stroke-width:2px;"/><path d="M198.277,408.178h3.43v16.237h9.056v3.001h-12.486v-19.238Z" style="fill:#fff;"/><path d="M227.701,427.417h-3.43v-19.238h3.43v19.238Z" style="fill:#fff;"/><path d="M248.229,427.417l-7.154-19.238h3.698l5.305,14.951,5.332-14.951h3.537l-7.101,19.238h-3.617Z" style="fill:#fff;"/><path d="M285.345,408.178v3.001h-9.646v4.823h8.119v3.001h-8.119v5.412h9.646v3.001h-13.022v-19.238h13.022Z" style="fill:#fff;"/><path d="M316.943,421.496c1.34,2.09,3.35,3.295,5.546,3.295,2.17,0,3.805-.991,3.805-2.84,0-1.956-2.01-2.224-4.876-2.921-2.894-.696-6.002-1.554-6.002-5.305,0-3.563,3.054-5.842,6.939-5.842,3.296,0,5.868,1.555,7.154,3.564l-2.519,2.17c-1.072-1.661-2.492-2.813-4.743-2.813-2.063,0-3.483,1.045-3.483,2.572,0,1.688,1.474,2.036,4.073,2.626,3.108.696,6.833,1.42,6.833,5.6,0,3.778-3.323,6.109-7.288,6.109-3.296,0-6.564-1.581-8.065-4.046l2.625-2.17Z" style="fill:#fff;"/><path d="M351.137,411.179v16.237h-3.43v-16.237h-6.189v-3.001h15.809v3.001h-6.189Z" style="fill:#fff;"/><path d="M370.515,419.781v-11.603h3.43v11.495c0,3.51,1.741,4.983,4.313,4.983,2.6,0,4.341-1.474,4.341-4.983v-11.495h3.43v11.603c0,5.305-3.162,7.904-7.771,7.904-4.582,0-7.743-2.6-7.743-7.904Z" style="fill:#fff;"/><path d="M400.664,408.178h6.431c5.976,0,9.673,3.751,9.673,9.619s-3.697,9.619-9.673,9.619h-6.431v-19.238ZM407.094,424.469c3.966,0,6.297-2.626,6.297-6.672,0-4.072-2.331-6.672-6.323-6.672h-3.055v13.344h3.081Z" style="fill:#fff;"/><path d="M434.162,427.417h-3.43v-19.238h3.43v19.238Z" style="fill:#fff;"/><path d="M457.048,407.883c5.198,0,8.95,4.073,8.95,9.914s-3.752,9.914-8.95,9.914-8.949-4.072-8.949-9.914,3.752-9.914,8.949-9.914ZM457.048,410.912c-3.242,0-5.52,2.706-5.52,6.886s2.277,6.887,5.52,6.887,5.521-2.707,5.521-6.887-2.278-6.886-5.521-6.886Z" style="fill:#fff;"/><path d="M256.511,311.072h-66.659c-4.655,0-8.429-3.774-8.429-8.429v-64.625c0-4.655,3.774-8.429,8.429-8.429h66.659c4.655,0,8.429,3.774,8.429,8.429v64.625c0,4.655-3.774,8.429-8.429,8.429" style="fill:#f4383c;"/><path d="M365.026,311.121h-66.659c-4.655,0-8.429-3.774-8.429-8.429v-64.625c0-4.655,3.774-8.429,8.429-8.429h66.659c4.655,0,8.429,3.774,8.429,8.429v64.625c0,4.655-3.774,8.429-8.429,8.429" style="fill:#f5d440;"/><path d="M473.54,311.896h-66.659c-4.655,0-8.429-3.774-8.429-8.429v-64.625c0-4.655,3.774-8.429,8.429-8.429h66.659c4.655,0,8.429,3.774,8.429,8.429v64.625c0,4.655-3.774,8.429-8.429,8.429" style="fill:#6be553;"/></g></g></g></g></svg>